<?xml version="1.0" encoding="iso-8859-1"?>
<!-- Generator: Adobe Illustrator 19.0.0, SVG Export Plug-In . SVG Version: 6.00 Build 0)  -->
<svg version="1.1" id="Layer_1" xmlns="http://www.w3.org/2000/svg" xmlns:xlink="http://www.w3.org/1999/xlink" x="0px" y="0px"
	 viewBox="0 0 512 512" style="enable-background:new 0 0 512 512;" xml:space="preserve">
<g transform="translate(1 1)">
	<g>
		<g>
			<path d="M434.2,101.4h-13.762l5.229-30.72c0-1.707,0-4.267-1.707-5.973c-1.707-1.707-3.413-3.413-5.973-3.413l-64.628-10.44
				L348.867,6.68C348.013,2.413,343.747-1,339.48-1L167.96,13.507c-2.56,0.853-4.267,1.707-5.973,3.413
				c-0.853,1.707-1.707,3.413-1.707,5.973l4.305,39.463L82.627,78.36c-4.267,0.853-7.68,5.12-6.827,9.387l2.438,13.653H75.8
				c-14.507,0-25.6,11.093-25.6,25.6v34.133c0,13.95,10.261,24.739,23.948,25.546l35.785,300.427
				C110.787,500.76,121.88,511,135.533,511h238.933c12.8,0,24.747-10.24,25.6-23.04l35.788-301.281
				c13.686-0.809,23.946-11.596,23.946-25.546V127C459.8,112.493,448.707,101.4,434.2,101.4z M402.627,101.4h-96.398l6.798-40.107
				l93.867,15.36L402.627,101.4z M181.613,58.733L178.2,29.72l153.6-12.8l3.413,30.72l-28.16-4.267
				c-4.267-0.853-8.533,2.56-9.387,6.827l-9.035,51.2h-43.416l-8.135-44.373c0-1.707-1.707-3.413-3.413-5.12
				C231.96,50.2,229.4,50.2,226.84,50.2L181.613,58.733z M94.573,92.867l79.706-15.079c0.33-0.036,0.661-0.098,0.995-0.188
				l6.129-1.16l39.492-7.313l5.945,32.274H95.427L94.573,92.867z M374.467,493.933H135.533c-4.267,0-8.533-3.413-8.533-8.533
				l-0.193-1.61l-3.22-41.057h262.827L383,486.253C383,490.52,378.733,493.933,374.467,493.933z M390.25,425.667H119.832
				L91.16,186.733h327.68L390.25,425.667z M442.733,161.133c0,5.12-3.413,8.533-8.533,8.533h-5.12H81.773H75.8
				c-5.12,0-8.533-3.413-8.533-8.533V127c0-5.12,3.413-8.533,8.533-8.533h12.8h149.333h58.027h114.347H434.2
				c5.12,0,8.533,3.413,8.533,8.533V161.133z"/>
			<path d="M255,391.533c5.12,0,8.533-3.413,8.533-8.533V229.4c0-5.12-3.413-8.533-8.533-8.533c-5.12,0-8.533,3.413-8.533,8.533V383
				C246.467,388.12,249.88,391.533,255,391.533z"/>
			<path d="M167.96,383.853c0.853,4.267,4.267,7.68,8.533,7.68c5.12-0.853,8.533-5.12,8.533-9.387L171.373,229.4
				c-0.853-4.267-4.267-8.533-9.387-7.68c-4.267,0.853-7.68,4.267-7.68,9.387L167.96,383.853z"/>
			<path d="M333.507,391.533c4.267,0,8.533-3.413,8.533-7.68l13.653-152.747c0.853-5.12-2.56-9.387-7.68-9.387
				c-5.12-0.853-9.387,2.56-9.387,7.68l-13.653,152.747C324.973,387.267,328.387,390.68,333.507,391.533z"/>
		</g>
	</g>
</g>
<g>
</g>
<g>
</g>
<g>
</g>
<g>
</g>
<g>
</g>
<g>
</g>
<g>
</g>
<g>
</g>
<g>
</g>
<g>
</g>
<g>
</g>
<g>
</g>
<g>
</g>
<g>
</g>
<g>
</g>
</svg>
